<svg width="28" height="17" viewBox="0 0 28 17" fill="none" xmlns="http://www.w3.org/2000/svg">
<path d="M5.496 13.424H10.752L10.104 17H0.12L3.12 0.079999H7.824L5.496 13.424Z" fill="white"/>
<path d="M27.2691 5.72C27.0931 6.744 26.6931 7.68 26.0691 8.528C25.4611 9.36 24.6371 10.032 23.5971 10.544C22.5571 11.04 21.3491 11.288 19.9731 11.288H17.6451L16.6371 17H11.9091L14.9091 0.079999H21.9411C23.7171 0.079999 25.0691 0.487999 25.9971 1.304C26.9251 2.104 27.3891 3.184 27.3891 4.544C27.3891 4.88 27.3491 5.272 27.2691 5.72ZM20.1891 7.568C21.5171 7.568 22.2851 6.952 22.4931 5.72C22.5251 5.496 22.5411 5.336 22.5411 5.24C22.5411 4.808 22.3971 4.472 22.1091 4.232C21.8371 3.976 21.4131 3.848 20.8371 3.848H18.9651L18.3171 7.568H20.1891Z" fill="#9022FF"/>
</svg>
